<svg width="19" height="23" viewBox="0 0 19 23" fill="none" xmlns="http://www.w3.org/2000/svg">
<path d="M3.51393 17.3966C3.51393 17.9972 3.98658 18.4875 4.56811 18.4875H5.77325V21.578C5.77325 22.3609 6.37952 23 7.12438 23C7.87171 23 8.47551 22.3634 8.47551 21.578V18.4849H10.5789V21.5754C10.5789 22.3583 11.1852 22.9974 11.9301 22.9974C12.6774 22.9974 13.2812 22.3609 13.2812 21.5754V18.4849H14.4863C15.0678 18.4849 15.5405 17.9946 15.5405 17.394V7.24981H3.51393V17.3966ZM12.3507 1.9929L13.4618 0.324447C13.5262 0.226906 13.5113 0.095997 13.4247 0.0318257C13.3381 -0.0297787 13.2144 0.00102369 13.15 0.098564L11.9969 1.83375C11.2372 1.52317 10.3909 1.35119 9.50247 1.35119C8.61409 1.35119 7.76777 1.52317 7.00807 1.83375L5.85491 0.101131C5.79057 0.0035905 5.66684 -0.0297785 5.58023 0.0343927C5.49362 0.0959971 5.47877 0.22434 5.54311 0.327013L6.6542 1.99547C4.88734 2.84766 3.65004 4.46221 3.49166 6.34884H15.5182C15.3549 4.45964 14.1151 2.84509 12.3507 1.9929ZM6.96353 4.62392C6.83187 4.62392 6.70317 4.58342 6.5937 4.50755C6.48424 4.43168 6.39891 4.32384 6.34853 4.19767C6.29815 4.07151 6.28497 3.93267 6.31065 3.79873C6.33634 3.66479 6.39973 3.54176 6.49283 3.44519C6.58593 3.34863 6.70454 3.28287 6.83366 3.25622C6.96279 3.22958 7.09663 3.24325 7.21827 3.29552C7.3399 3.34778 7.44387 3.43628 7.51701 3.54983C7.59016 3.66338 7.6292 3.79687 7.6292 3.93344C7.62874 4.11642 7.55846 4.29177 7.43372 4.42116C7.30898 4.55055 7.13993 4.62345 6.96353 4.62392ZM12.1206 4.62392C11.9889 4.62392 11.8602 4.58342 11.7508 4.50755C11.6413 4.43168 11.556 4.32384 11.5056 4.19767C11.4552 4.07151 11.442 3.93267 11.4677 3.79873C11.4934 3.66479 11.5568 3.54176 11.6499 3.44519C11.743 3.34863 11.8616 3.28287 11.9907 3.25622C12.1199 3.22958 12.2537 3.24325 12.3753 3.29552C12.497 3.34778 12.6009 3.43628 12.6741 3.54983C12.7472 3.66338 12.7863 3.79687 12.7863 3.93344C12.7858 4.11642 12.7155 4.29177 12.5908 4.42116C12.4661 4.55055 12.297 4.62345 12.1206 4.62392ZM17.6489 7.20874C16.9015 7.20874 16.2977 7.84532 16.2977 8.63077V14.1854C16.2977 14.9683 16.904 15.6075 17.6489 15.6075C18.3962 15.6075 19 14.9709 19 14.1854V8.62821C19.0025 7.84275 18.3987 7.20874 17.6489 7.20874ZM1.35113 7.20874C0.603803 7.20874 0 7.84532 0 8.63077V14.1854C0 14.9683 0.606277 15.6075 1.35113 15.6075C2.09846 15.6075 2.70226 14.9709 2.70226 14.1854V8.62821C2.70226 7.84275 2.09599 7.20874 1.35113 7.20874Z" fill="#BA0A0A"/>
</svg>
